<svg height="230.63873mm" viewBox="0 0 206.41531 230.63873" width="206.41531mm" xmlns="http://www.w3.org/2000/svg"><g transform="translate(-98.30512 -524.88116)"><path d="m256.69872 742.37194c-13.41871-1.25681-24.43436-11.13373-27.73545-24.86834l-.54053-2.24896-.16338-3.30729-.16337-3.3073.44744-2.83767.44745-2.83768.87266-2.58628c2.64288-7.83271 7.50411-13.89124 14.32189-17.84934l2.10509-1.22211 2.51354-.92577c1.38245-.50918 3.52557-1.14345 4.7625-1.40951l2.24896-.48374 4.10104.006 4.10104.006 1.5875.33702c.87313.18538 2.54.63772 3.70417 1.00523l2.11667.6682 2.77812 1.42116 2.77813 1.42116 2.15893 1.72914c2.77404 2.2218 5.04812 4.7086 6.97299 7.62528l1.53328 2.3233 1.06841 2.4392 1.06842 2.43919.69916 2.64585.69915 2.64583.14043 3.96875.14043 3.96875-.43719 2.5032c-.78435 4.4909-2.7579 9.40448-5.25535 13.08426l-1.06185 1.56457 1.16368 1.09137 1.16367 1.09136-.83006.71751c-.45653.39463-.95332.71751-1.10396.71751s-.81299.61627-1.47188 1.36948l-1.19799 1.36947.16002.25891.16001.2589-.28287-.17482-.28286-.17482-.12182.33238-.12181.33238-1.06894-1.02395-1.06893-1.02394-2.20529 1.45794c-5.29411 3.50001-10.34545 5.20634-16.49278 5.57125l-2.11667.12565zm7.46425-6.49802c4.33504-.82234 7.78614-2.39757 11.44844-5.22556l2.06881-1.59751 1.83234-2.2679 1.83233-2.26791 1.32454-2.64583 1.32455-2.64583.68945-2.64584.68946-2.64583v-3.57187l-.68637-6.19883-.68637-2.62694-1.17395-2.4132c-2.64059-5.42803-6.85001-9.56609-12.36559-12.15594l-2.47426-1.16179-2.38125-.59994-2.38125-.59994-3.30729-.01-3.30729-.0101-2.11667.48023c-2.78818.63256-6.13758 2.02935-8.45004 3.52389l-1.86871 1.20775-2.09009 2.01418-2.09009 2.01419-1.55361 2.38125-1.55361 2.38125-.79571 2.06179c-.43764 1.13399-1.0423 3.09852-1.34368 4.36563l-.54798 2.30383.12262 3.83646.12262 3.83645.58499 2.11667c2.70486 9.78686 10.5176 16.98808 20.36517 18.77113l2.00854.36368 2.28588.0237 2.28587.0237z" fill="#ec5602"/><g stroke-miterlimit="0"><path d="m200.80397 642.24504h28.04742c4.50687 0 8.13514 3.62827 8.13514 8.13514v7.24968c0 4.50687.96345 8.13514-3.54342 8.13514h-37.59336c-4.50687 0-3.18092-3.62827-3.18092-8.13514v-7.24968c0-4.50687 3.62827-8.13514 8.13514-8.13514z" fill="#ec5602" stroke-dasharray="1.7214 .860703" stroke-width=".43035"/><rect fill="#ec5602" height="5.582948" ry="2.791474" stroke-dasharray="2.22635 1.11317" stroke-width=".556583" width="47.131813" x="148.963" y="565.9826"/><rect fill="#1b2633" height="5.582948" ry="2.791474" stroke-dasharray="2.82726 1.41362" stroke-width=".706808" width="76.007713" x="148.78937" y="579.71442"/><rect fill="#1b2633" height="5.582948" ry="2.791474" stroke-dasharray="2.41264 1.20631" stroke-width=".603153" width="55.349014" x="148.78937" y="596.55774"/></g><path d="m223.72899 524.88116-43.59579.0698-43.59579.0703-1.7787.84233-1.77922.84284-1.33635 1.25005-1.33636 1.25006-.98546 1.99471-.98599 1.99419-.0687 56.56244-.0682 56.56192.93224-.63252c.51274-.34796 1.68295-.90224 2.60087-1.23145l1.66915-.59841.37569-2.13579.37569-2.13579.13436-52.2552.13436-52.25521.65835-1.15084.65888-1.15031 1.08417-.63562 1.08469-.63511h40.65643 40.65643v13.57023 13.57075l.4098 1.57407.41031 1.57458.8077 1.25832.8077 1.25884 1.0387.82268c.57145.45259 1.66079 1.07828 2.42052 1.3901l1.38132.56689 14.61822.0785 14.61823.0785v38.2881 38.28862l1.83297.57722c1.00801.3176 2.3149.88236 2.90473 1.25471.58983.37234 1.13304.67696 1.20664.67696.0734 0 .10572-18.90117.0713-42.0026l-.0625-42.00261-.44183-.79375-.44184-.79375-4.71754-4.62762c-2.59463-2.54494-10.57199-10.42485-17.7276-17.51108l-13.01058-12.88397-.80821-.41806zm1.84071 10.59108h.18552c.21983 0 3.57585 3.2621 16.23312 15.7794l9.40718 9.30331-.94051.15555v-.00052c-.51734.0856-5.76254.15231-11.65614.14831l-10.71562-.007-.86972-.37827-.86971-.37775-.38706-.92605-.38706-.92655v-11.38536zm12.13466 82.01464-44.63035.0692-44.63035.0693-1.33532.70435-1.3348.70486-1.10381 1.10381-1.10381 1.10381-.6506 1.37459-.65009 1.3746-.28474 2.77037c-.1565 1.52344-.3506 3.27255-.4315 3.8871l-.14779 1.11725 2.19831-.14728c1.20888-.0811 2.33314-.18811 2.49856-.23771l.30076-.0904.1912-2.66753.19068-2.66806.56689-1.12241.56638-1.1219 1.18701-.59841 1.18649-.59841 43.5746.0692 43.5746.0687.7307.54571c.40184.30003.95842.85089 1.23714 1.22421l.50694.67903.36071 2.87683c.19847 1.58222.36448 3.02514.36948 3.20704l.009.33073h2.48822 2.48822l-.12815-1.12448c-.0706-.61847-.29733-2.4079-.50385-3.97702l-.37569-2.85306-.64699-1.2764-.64698-1.27693-1.35031-1.21388-1.3503-1.2144-1.46038-.54621zm-46.3982 15.73495-48.15416.0357-1.54358.57774c-.84888.31774-2.02795.93403-2.61999 1.36943l-1.07642.79168-.87489 1.23042c-1.02708 1.44462-1.56819 2.97942-1.9513 5.53402-.15276 1.01865-.34463 2.1795-.42633 2.57969l-.14883.72761h2.51096 2.51044l.30748-1.91823c.16902-1.05502.42542-2.29954.56947-2.76521l.26148-.84646.93948-.82475c.51661-.45358 1.23143-.93599 1.58853-1.07177l.64958-.2465h50.50079 50.50079l.74518.28215c1.77344.67194 2.57638 1.97835 3.16415 5.14698l.41599 2.24379h2.48977 2.48977l-.13022-.59532c-.0717-.32742-.32654-1.7264-.56638-3.10885l-.43615-2.51354-.63768-1.36684-.63769-1.36633-1.11621-1.12189-1.11569-1.12242-1.45521-.67851-1.45521-.67851-3.57188-.16485c-1.96453-.0906-25.24125-.14889-51.72604-.12919zm47.95573 14.43323.16537.82682c.091.45476.16536 1.64538.16536 2.64584v1.81901l8.13594.006 8.13594.006 1.05833.48214 1.05833.48214.95188 1.05575.95188 1.05575.98495 5.13716c.54164 2.8254 1.03176 5.28597 1.08986 5.46788l.10594.33021h2.38952 2.38951v-.62632c0-.34441-.47555-3.05061-1.05678-6.01358l-1.05678-5.38727-.68678-1.40353-.68678-1.40353-1.33119-1.31052-1.33118-1.31051-1.35702-.65526-1.35703-.65577-1.71979-.27234-1.71979-.27182-7.63984-.002zm-104.63651.00052-1.4242.26975c-.78322.14854-2.13907.60481-3.01325 1.01389l-1.58957.74362-1.26865 1.26866-1.26814 1.26866-.67955 1.34048-.67954 1.34101-.35244 1.99936c-.19393 1.09966-.6564 3.72272-1.02784 5.8291-.37145 2.10637-.67541 3.92207-.67541 4.03489l-.00052.20516h2.4474 2.44739l.85835-5.03484.85834-5.03483.52865-1.0356.52814-1.03507.86196-.64028c.47429-.35213 1.26751-.77592 1.76217-.94154l.89917-.30076h28.5352 28.53573l.004-2.05052c.002-1.12779.0756-2.3184.1633-2.64583l.15917-.59531h-28.30525zm-36.32026 22.01571v31.00534 31.00483l.405144 1.55546c.22282.85546.785016 2.27968 1.249536 3.16466l.84439 1.6092 1.72858 1.74874 1.72858 1.74873 1.39113.70486c.76521.38776 2.01471.87279 2.77657 1.07797l1.38545.37207 67.20416.014 67.20417.0134-2.31511-1.25264c-3.33008-1.80263-5.26887-3.2751-8.26822-6.27765l-2.64584-2.64842-1.75958-2.64583c-2.91649-4.38573-4.65661-8.41617-5.93969-13.75833l-.44442-1.85209-.12402-4.36562-.12402-4.36563.44441-2.37194c.24459-1.3044.80275-3.50707 1.24024-4.8948l.7953-2.52284 1.55598-3.175 1.55546-3.175 2.10219-2.79001 2.10168-2.78949 1.76062-1.64745c5.09937-4.77022 10.98044-7.86589 17.73794-9.33741l2.38125-.51832 3.43958-.15864 3.43958-.15865 2.90215.45734c11.16608 1.75881 20.29583 7.9463 26.20667 17.76222l.92139 1.53066v-11.15023-11.15022c0-11.05827-3.03171-11.36797-9.2957-11.36797l-1.68451-.022-4.05608-.006-4.05608-.006.14211.7276c.34189 1.75141 1.29763 9.60455 1.18287 9.71931-.0697.0698-35.54012.13304-78.8231.14004l-78.69597.0129.0832-1.13275c.13455-1.82819.83323-7.94771.99787-8.73952l.15141-.7276h-3.88555c-8.5662.00026-14.532519-1.12153-14.94172 10.63875zm25.13645 24.81554h24.30033 21.52375 2.68149c1.75482 0 3.16776 1.41294 3.16776 3.16776 0 1.75483-1.41294 3.16777-3.16776 3.16777h-2.651l-.0305.0145-18.37459-.0145h-27.44949c-1.75483 0-3.16725-1.41294-3.16725-3.16777 0-1.75482 1.41242-3.16776 3.16725-3.16776zm70.96053 4.89789c5.11121.0001 9.25463 4.14352 9.25473 9.25473.00019 5.11141-4.14332 9.25515-9.25473 9.25525-5.11141-.00009-9.25493-4.14384-9.25474-9.25525.0001-5.11121 4.14353-9.25464 9.25474-9.25473zm53.13267.11265-.817.42272-.81701.42271-.39119.93586-.39067.93586.1602.72915.16019.72916.71469.67283c.39311.37011.95281.72995 1.24385.79995s5.38455.14123 11.3192.15813l10.79056.031.86351-.36122.86352-.3607.45062-.68833.45113-.68781v-.93121-.93121l-.77205-.86403-.77152-.86403-11.52902-.0744zm0 12.7-.817.42272-.81701.42271-.39119.93586-.39067.93586.1664.75913.16691.75912.79478.6687.79427.66869h11.63908 11.63857l.50901-.27285c.27997-.14984.6892-.61987.90899-1.0449l.39946-.77308v-.80253-.80254l-.77205-.86403-.77152-.86403-11.52902-.0744zm-124.09217.0165h2.32854 44.28877 1.95596c1.75728 0 3.1719 1.41462 3.1719 3.1719s-1.41462 3.1719-3.1719 3.1719h-2.49959l-.0119.006-21.77541-.006h-24.28637c-1.75728 0-3.1719-1.41462-3.1719-3.1719s1.41462-3.1719 3.1719-3.1719zm164.46542 19.32182-.96894.26096-.96893.26097-2.26601 2.35024-2.26601 2.35025-.1819 1.21336-.1819 1.21285.28422.81493.28422.81494 6.64714 6.83679 6.64714 6.8368.96893.40824c.53295.22476 1.14753.47405 1.36581.55345v-.00051c.21828.0794.95429.0946 1.63556.0331l1.23868-.11214 1.048-.53433 1.048-.53485.93379-1.09089.93328-1.09089.30592-1.27331.30541-1.27331-.17829-1.18804-.17828-1.18804-.56947-.91364-.56948-.91312-6.79183-6.66833-6.79183-6.66832-.86662-.24857z" fill="#1b2633"/><rect fill="#ec5602" height="13.165171" ry="6.582585" stroke-dasharray="1.39529 .697645" stroke-miterlimit="0" stroke-width=".348821" width="13.165171" x="187.70804" y="702.09094"/></g></svg>